<?xml version="1.0" encoding="utf-8" ?>
<svg baseProfile="tiny" height="100%" version="1.2" width="100%" xmlns="http://www.w3.org/2000/svg" xmlns:ev="http://www.w3.org/2001/xml-events" xmlns:xlink="http://www.w3.org/1999/xlink"><defs /><path d="M 1177,499 L 1175,501 L 1174,501 L 1171,504 L 1171,505 L 1170,506 L 1170,507 L 1169,508 L 1169,511 L 1170,512 L 1170,513 L 1176,519 L 1177,519 L 1178,520 L 1182,520 L 1183,519 L 1184,519 L 1187,516 L 1187,514 L 1188,513 L 1188,509 L 1187,508 L 1187,506 L 1186,505 L 1186,504 L 1181,499" fill="none" stroke="black" stroke-width="2" /><path d="M 1752,340 L 1751,341 L 1750,341 L 1749,342 L 1749,343 L 1748,344 L 1748,345 L 1747,346 L 1747,354 L 1748,355 L 1748,356 L 1751,359 L 1751,360 L 1752,360 L 1754,362 L 1755,362 L 1756,363 L 1757,363 L 1758,364 L 1765,364 L 1769,360 L 1769,354 L 1768,353 L 1768,352 L 1767,351 L 1767,350 L 1764,347 L 1764,346 L 1763,345 L 1762,345 L 1759,342 L 1758,342 L 1757,341 L 1756,341 L 1755,340" fill="none" stroke="black" stroke-width="2" /><path d="M 1103,214 L 1102,215 L 1099,215 L 1098,216 L 1096,216 L 1095,217 L 1093,217 L 1092,218 L 1091,218 L 1090,219 L 1089,219 L 1088,220 L 1087,220 L 1086,221 L 1085,221 L 1083,223 L 1082,223 L 1079,226 L 1078,226 L 1074,230 L 1073,230 L 1066,237 L 1065,237 L 1050,252 L 1050,253 L 1040,263 L 1040,264 L 1033,271 L 1033,272 L 1027,278 L 1027,279 L 1024,282 L 1024,283 L 1019,288 L 1019,289 L 1015,293 L 1015,294 L 1011,298 L 1011,299 L 1008,302 L 1008,303 L 1005,306 L 1005,307 L 1003,309 L 1003,310 L 999,314 L 999,315 L 997,317 L 997,318 L 995,320 L 995,321 L 992,324 L 992,325 L 990,327 L 990,328 L 988,330 L 988,331 L 985,334 L 985,335 L 983,337 L 983,338 L 982,339 L 982,340 L 980,342 L 980,343 L 978,345 L 978,346 L 976,348 L 976,349 L 975,350 L 975,351 L 973,353 L 973,354 L 971,356 L 971,357 L 970,358 L 970,359 L 968,361 L 968,362 L 967,363 L 967,364 L 966,365 L 966,366 L 964,368 L 964,369 L 962,371 L 962,372 L 961,373 L 961,374 L 960,375 L 960,376 L 959,377 L 959,378 L 957,380 L 957,381 L 956,382 L 956,383 L 955,384 L 955,385 L 954,386 L 954,387 L 953,388 L 953,389 L 952,390 L 952,391 L 950,393 L 950,394 L 949,395 L 949,396 L 948,397 L 948,398 L 947,399 L 947,400 L 946,401 L 946,402 L 945,403 L 945,404 L 944,405 L 944,406 L 943,407 L 943,408 L 942,409 L 942,410 L 941,411 L 941,412 L 940,413 L 940,414 L 939,415 L 939,417 L 938,418 L 938,419 L 937,420 L 937,421 L 936,422 L 936,423 L 935,424 L 935,425 L 934,426 L 934,428 L 933,429 L 933,430 L 932,431 L 932,433 L 931,434 L 931,435 L 930,436 L 930,438 L 929,439 L 929,440 L 928,441 L 928,443 L 927,444 L 927,445 L 926,446 L 926,448 L 925,449 L 925,451 L 924,452 L 924,455 L 923,456 L 923,458 L 922,459 L 922,461 L 921,462 L 921,465 L 920,466 L 920,468 L 919,469 L 919,472 L 918,473 L 918,477 L 917,478 L 917,484 L 916,485 L 916,495 L 915,496 L 915,506 L 916,507 L 916,515 L 917,516 L 917,520 L 918,521 L 918,523 L 919,524 L 919,526 L 920,527 L 920,528 L 921,529 L 921,530 L 922,531 L 922,532 L 923,533 L 923,534 L 925,536 L 925,537 L 935,547 L 936,547 L 938,549 L 939,549 L 940,550 L 941,550 L 942,551 L 943,551 L 944,552 L 945,552 L 946,553 L 947,553 L 948,554 L 950,554 L 951,555 L 953,555 L 954,556 L 957,556 L 958,557 L 962,557 L 963,558 L 969,558 L 970,559 L 994,559 L 995,558 L 1001,558 L 1002,557 L 1008,557 L 1009,556 L 1013,556 L 1014,555 L 1017,555 L 1018,554 L 1021,554 L 1022,553 L 1024,553 L 1025,552 L 1027,552 L 1028,551 L 1030,551 L 1031,550 L 1033,550 L 1034,549 L 1037,549 L 1038,548 L 1039,548 L 1040,547 L 1042,547 L 1043,546 L 1044,546 L 1045,545 L 1047,545 L 1048,544 L 1049,544 L 1050,543 L 1051,543 L 1052,542 L 1054,542 L 1055,541 L 1056,541 L 1057,540 L 1058,540 L 1059,539 L 1060,539 L 1061,538 L 1062,538 L 1063,537 L 1064,537 L 1066,535 L 1068,535 L 1069,534 L 1070,534 L 1072,532 L 1073,532 L 1074,531 L 1075,531 L 1077,529 L 1078,529 L 1079,528 L 1080,528 L 1082,526 L 1083,526 L 1084,525 L 1085,525 L 1088,522 L 1089,522 L 1091,520 L 1092,520 L 1094,518 L 1095,518 L 1098,515 L 1099,515 L 1103,511 L 1104,511 L 1110,505 L 1111,505 L 1127,489 L 1127,488 L 1131,484 L 1131,483 L 1135,479 L 1135,478 L 1137,476 L 1137,475 L 1139,473 L 1139,472 L 1141,470 L 1141,469 L 1142,468 L 1142,467 L 1143,466 L 1143,465 L 1144,464 L 1144,462 L 1145,461 L 1145,458 L 1146,457 L 1146,453 L 1145,452 L 1145,450 L 1140,445 L 1139,445 L 1138,444 L 1137,444 L 1136,443 L 1132,443 L 1131,442 L 1130,443 L 1125,443 L 1124,444 L 1122,444 L 1121,445 L 1119,445 L 1118,446 L 1117,446 L 1116,447 L 1115,447 L 1113,449 L 1112,449 L 1110,451 L 1109,451 L 1108,452 L 1107,452 L 1104,455 L 1103,455 L 1100,458 L 1099,458 L 1097,460 L 1096,460 L 1092,464 L 1091,464 L 1088,467 L 1087,467 L 1081,473 L 1080,473 L 1069,484 L 1069,485 L 1066,488 L 1066,489 L 1063,492 L 1063,493 L 1062,494 L 1062,495 L 1061,496 L 1061,497 L 1060,498 L 1060,500 L 1059,501 L 1059,503 L 1058,504 L 1058,517 L 1059,518 L 1059,524 L 1055,528 L 1054,528 L 1053,529 L 1052,529 L 1051,530 L 1050,530 L 1049,531 L 1046,531 L 1045,532 L 1043,532 L 1042,533 L 1039,533 L 1038,534 L 1036,534 L 1035,535 L 1032,535 L 1031,536 L 1029,536 L 1028,537 L 1025,537 L 1024,538 L 1020,538 L 1019,539 L 1015,539 L 1014,540 L 1009,540 L 1008,541 L 1003,541 L 1002,542 L 996,542 L 995,543 L 987,543 L 986,544 L 967,544 L 966,543 L 962,543 L 961,542 L 959,542 L 958,541 L 956,541 L 955,540 L 954,540 L 953,539 L 951,539 L 949,537 L 948,537 L 947,536 L 946,536 L 943,533 L 942,533 L 934,525 L 934,524 L 932,522 L 932,521 L 931,520 L 931,518 L 930,517 L 930,512 L 929,511 L 929,495 L 930,494 L 930,489 L 931,488 L 931,484 L 932,483 L 932,479 L 933,478 L 933,475 L 934,474 L 934,471 L 935,470 L 935,467 L 936,466 L 936,464 L 937,463 L 937,461 L 938,460 L 938,458 L 939,457 L 939,455 L 940,454 L 940,452 L 941,451 L 941,449 L 942,448 L 942,446 L 943,445 L 943,444 L 944,443 L 944,441 L 945,440 L 945,439 L 946,438 L 946,437 L 947,436 L 947,434 L 948,433 L 948,431 L 949,430 L 949,429 L 950,428 L 950,426 L 951,425 L 951,424 L 952,423 L 952,422 L 953,421 L 953,420 L 954,419 L 954,418 L 955,417 L 955,416 L 956,415 L 956,413 L 957,412 L 957,411 L 958,410 L 958,409 L 959,408 L 959,407 L 960,406 L 960,405 L 961,404 L 961,403 L 962,402 L 962,401 L 963,400 L 963,399 L 964,398 L 964,397 L 966,395 L 966,394 L 967,393 L 967,392 L 968,391 L 968,390 L 970,388 L 970,387 L 971,386 L 971,385 L 972,384 L 972,383 L 974,381 L 974,380 L 976,378 L 976,377 L 977,376 L 977,375 L 978,374 L 978,373 L 980,371 L 980,370 L 981,369 L 981,368 L 983,366 L 983,365 L 984,364 L 984,363 L 986,361 L 986,360 L 987,359 L 987,358 L 989,356 L 989,355 L 990,354 L 990,353 L 992,351 L 992,350 L 993,349 L 993,348 L 994,347 L 994,346 L 996,344 L 996,343 L 998,341 L 998,340 L 999,339 L 999,338 L 1001,336 L 1001,335 L 1004,332 L 1004,331 L 1006,329 L 1006,328 L 1008,326 L 1008,325 L 1012,321 L 1012,320 L 1015,317 L 1015,316 L 1019,312 L 1019,311 L 1022,308 L 1022,307 L 1026,303 L 1026,302 L 1030,298 L 1030,297 L 1035,292 L 1035,291 L 1041,285 L 1041,284 L 1047,278 L 1047,277 L 1055,269 L 1055,268 L 1077,246 L 1078,246 L 1081,243 L 1082,243 L 1085,240 L 1086,240 L 1088,238 L 1089,238 L 1090,237 L 1091,237 L 1092,236 L 1093,236 L 1094,235 L 1095,235 L 1096,234 L 1097,234 L 1098,233 L 1099,233 L 1100,232 L 1102,232 L 1103,231 L 1113,231 L 1114,232 L 1115,232 L 1117,234 L 1118,234 L 1119,235 L 1119,236 L 1121,238 L 1121,239 L 1123,241 L 1123,242 L 1124,242 L 1125,243 L 1126,243 L 1127,244 L 1128,243 L 1129,243 L 1130,242 L 1130,241 L 1131,240 L 1131,227 L 1130,226 L 1130,225 L 1129,224 L 1129,223 L 1123,217 L 1122,217 L 1121,216 L 1120,216 L 1119,215 L 1116,215 L 1115,214" fill="none" stroke="black" stroke-width="2" /><path d="M 1680,181 L 1679,182 L 1677,182 L 1676,183 L 1674,183 L 1673,184 L 1672,184 L 1671,185 L 1670,185 L 1669,186 L 1668,186 L 1667,187 L 1666,187 L 1664,189 L 1663,189 L 1662,190 L 1661,190 L 1660,191 L 1659,191 L 1658,192 L 1657,192 L 1655,194 L 1654,194 L 1652,196 L 1651,196 L 1649,198 L 1648,198 L 1647,199 L 1646,199 L 1643,202 L 1642,202 L 1639,205 L 1638,205 L 1636,207 L 1635,207 L 1632,210 L 1631,210 L 1628,213 L 1627,213 L 1623,217 L 1622,217 L 1619,220 L 1618,220 L 1613,225 L 1612,225 L 1609,228 L 1608,228 L 1602,234 L 1601,234 L 1596,239 L 1595,239 L 1590,244 L 1589,244 L 1583,250 L 1582,250 L 1575,257 L 1574,257 L 1566,265 L 1565,265 L 1553,277 L 1552,277 L 1536,293 L 1535,293 L 1535,294 L 1530,299 L 1529,299 L 1527,301 L 1527,302 L 1512,317 L 1512,318 L 1505,325 L 1505,326 L 1499,332 L 1499,333 L 1494,338 L 1494,339 L 1490,343 L 1490,344 L 1486,348 L 1486,349 L 1483,352 L 1483,353 L 1479,357 L 1479,358 L 1476,361 L 1476,362 L 1473,365 L 1473,366 L 1470,369 L 1470,370 L 1467,373 L 1467,374 L 1465,376 L 1465,377 L 1462,380 L 1462,381 L 1460,383 L 1460,384 L 1457,387 L 1457,388 L 1455,390 L 1455,391 L 1453,393 L 1453,394 L 1450,397 L 1450,398 L 1448,400 L 1448,401 L 1446,403 L 1446,404 L 1444,406 L 1444,407 L 1442,409 L 1442,410 L 1440,412 L 1440,413 L 1438,415 L 1438,416 L 1436,418 L 1436,419 L 1434,421 L 1434,422 L 1432,424 L 1432,425 L 1430,427 L 1430,428 L 1428,430 L 1428,431 L 1425,434 L 1425,435 L 1422,438 L 1422,439 L 1418,443 L 1418,444 L 1413,449 L 1413,450 L 1397,466 L 1396,466 L 1390,472 L 1389,472 L 1386,475 L 1385,475 L 1381,479 L 1380,479 L 1378,481 L 1377,481 L 1375,483 L 1374,483 L 1370,487 L 1369,487 L 1367,489 L 1366,489 L 1363,492 L 1362,492 L 1358,496 L 1357,496 L 1354,499 L 1353,499 L 1349,503 L 1348,503 L 1344,507 L 1343,507 L 1340,510 L 1339,510 L 1334,515 L 1333,515 L 1330,518 L 1329,518 L 1325,522 L 1324,522 L 1321,525 L 1320,525 L 1318,527 L 1317,527 L 1314,530 L 1313,530 L 1311,532 L 1310,532 L 1307,535 L 1306,535 L 1303,538 L 1302,538 L 1300,540 L 1299,540 L 1297,542 L 1296,542 L 1293,545 L 1292,545 L 1291,546 L 1290,546 L 1288,548 L 1287,548 L 1284,551 L 1283,551 L 1281,553 L 1280,553 L 1279,554 L 1278,554 L 1276,556 L 1275,556 L 1272,559 L 1271,559 L 1270,560 L 1269,560 L 1267,562 L 1266,562 L 1264,564 L 1263,564 L 1261,566 L 1260,566 L 1258,568 L 1257,568 L 1256,569 L 1255,569 L 1254,570 L 1253,570 L 1251,572 L 1250,572 L 1248,574 L 1247,574 L 1246,575 L 1245,575 L 1244,576 L 1243,576 L 1241,578 L 1240,578 L 1239,579 L 1238,579 L 1237,580 L 1236,580 L 1235,581 L 1234,581 L 1233,582 L 1232,582 L 1231,581 L 1230,581 L 1228,579 L 1228,578 L 1227,577 L 1227,575 L 1228,574 L 1228,573 L 1229,572 L 1229,571 L 1232,568 L 1232,567 L 1239,560 L 1239,559 L 1242,556 L 1243,556 L 1246,553 L 1246,552 L 1249,549 L 1250,549 L 1264,535 L 1265,535 L 1275,525 L 1276,525 L 1285,516 L 1286,516 L 1293,509 L 1294,509 L 1301,502 L 1302,502 L 1308,496 L 1309,496 L 1316,489 L 1317,489 L 1323,483 L 1324,483 L 1331,476 L 1332,476 L 1338,470 L 1339,470 L 1345,464 L 1346,464 L 1352,458 L 1353,458 L 1359,452 L 1360,452 L 1369,443 L 1370,443 L 1380,433 L 1381,433 L 1395,419 L 1396,419 L 1420,395 L 1420,394 L 1428,386 L 1428,385 L 1433,380 L 1433,379 L 1436,376 L 1436,375 L 1438,373 L 1438,372 L 1440,370 L 1440,369 L 1442,367 L 1442,366 L 1443,365 L 1443,363 L 1444,362 L 1444,361 L 1445,360 L 1445,358 L 1446,357 L 1446,349 L 1445,348 L 1445,346 L 1441,342 L 1439,342 L 1438,341 L 1427,341 L 1426,342 L 1421,342 L 1420,343 L 1415,343 L 1414,344 L 1411,344 L 1410,345 L 1407,345 L 1406,346 L 1404,346 L 1403,347 L 1401,347 L 1400,348 L 1398,348 L 1397,349 L 1395,349 L 1394,350 L 1391,350 L 1390,351 L 1388,351 L 1387,352 L 1385,352 L 1384,353 L 1382,353 L 1381,354 L 1379,354 L 1378,355 L 1377,355 L 1376,356 L 1374,356 L 1373,357 L 1371,357 L 1370,358 L 1368,358 L 1367,359 L 1366,359 L 1365,360 L 1363,360 L 1362,361 L 1361,361 L 1360,362 L 1358,362 L 1357,363 L 1356,363 L 1355,364 L 1353,364 L 1352,365 L 1351,365 L 1350,366 L 1348,366 L 1347,367 L 1346,367 L 1345,368 L 1343,368 L 1342,369 L 1341,369 L 1340,370 L 1339,370 L 1338,371 L 1337,371 L 1336,372 L 1334,372 L 1333,373 L 1331,373 L 1330,374 L 1329,374 L 1328,375 L 1327,375 L 1326,376 L 1325,376 L 1324,377 L 1322,377 L 1321,378 L 1320,378 L 1319,379 L 1317,379 L 1316,380 L 1315,380 L 1314,381 L 1312,381 L 1311,382 L 1310,382 L 1309,383 L 1308,383 L 1307,384 L 1305,384 L 1304,385 L 1303,385 L 1302,386 L 1300,386 L 1299,387 L 1297,387 L 1296,388 L 1295,388 L 1294,389 L 1292,389 L 1291,390 L 1290,390 L 1289,391 L 1287,391 L 1286,392 L 1285,392 L 1284,393 L 1282,393 L 1281,394 L 1279,394 L 1278,395 L 1276,395 L 1275,396 L 1273,396 L 1272,397 L 1270,397 L 1269,398 L 1267,398 L 1266,399 L 1264,399 L 1263,400 L 1260,400 L 1259,401 L 1256,401 L 1255,402 L 1251,402 L 1250,403 L 1246,403 L 1245,404 L 1239,404 L 1238,405 L 1230,405 L 1229,404 L 1225,404 L 1224,403 L 1221,403 L 1220,402 L 1219,402 L 1216,399 L 1216,398 L 1215,397 L 1215,394 L 1216,393 L 1216,391 L 1217,390 L 1217,389 L 1218,388 L 1218,387 L 1222,383 L 1222,382 L 1242,362 L 1243,362 L 1249,356 L 1250,356 L 1254,352 L 1255,352 L 1259,348 L 1260,348 L 1263,345 L 1264,345 L 1267,342 L 1268,342 L 1271,339 L 1272,339 L 1274,337 L 1275,337 L 1278,334 L 1279,334 L 1281,332 L 1282,332 L 1284,330 L 1285,330 L 1287,328 L 1288,328 L 1291,325 L 1292,325 L 1293,324 L 1294,324 L 1296,322 L 1297,322 L 1299,320 L 1300,320 L 1302,318 L 1303,318 L 1304,317 L 1305,317 L 1307,315 L 1308,315 L 1309,314 L 1310,314 L 1312,312 L 1313,312 L 1314,311 L 1315,311 L 1316,310 L 1317,310 L 1319,308 L 1320,308 L 1321,307 L 1322,307 L 1323,306 L 1324,306 L 1326,304 L 1327,304 L 1328,303 L 1329,303 L 1330,302 L 1331,302 L 1332,301 L 1333,301 L 1334,300 L 1335,300 L 1336,299 L 1337,299 L 1338,298 L 1339,298 L 1341,296 L 1342,296 L 1343,295 L 1345,295 L 1346,294 L 1347,294 L 1348,293 L 1349,293 L 1350,292 L 1351,292 L 1352,291 L 1353,291 L 1354,290 L 1355,290 L 1356,289 L 1357,289 L 1358,288 L 1360,288 L 1361,287 L 1362,287 L 1363,286 L 1365,286 L 1366,285 L 1367,285 L 1368,284 L 1369,284 L 1370,283 L 1371,283 L 1372,282 L 1374,282 L 1375,281 L 1377,281 L 1378,280 L 1380,280 L 1381,279 L 1382,279 L 1383,278 L 1385,278 L 1386,277 L 1388,277 L 1389,276 L 1391,276 L 1392,275 L 1394,275 L 1395,274 L 1397,274 L 1398,273 L 1401,273 L 1402,272 L 1405,272 L 1406,271 L 1410,271 L 1411,270 L 1415,270 L 1416,269 L 1421,269 L 1422,268 L 1437,268 L 1438,269 L 1441,269 L 1442,270 L 1443,270 L 1444,271 L 1446,271 L 1448,273 L 1449,273 L 1452,276 L 1452,277 L 1453,278 L 1453,281 L 1454,282 L 1454,288 L 1453,289 L 1453,294 L 1452,295 L 1452,298 L 1451,299 L 1451,301 L 1450,302 L 1450,303 L 1449,304 L 1449,305 L 1448,306 L 1448,308 L 1447,309 L 1447,310 L 1446,311 L 1446,313 L 1445,314 L 1445,317 L 1446,318 L 1448,318 L 1449,317 L 1450,317 L 1451,316 L 1452,316 L 1455,313 L 1455,312 L 1458,309 L 1458,308 L 1460,306 L 1460,305 L 1461,304 L 1461,303 L 1462,302 L 1462,301 L 1463,300 L 1463,299 L 1464,298 L 1464,297 L 1465,296 L 1465,294 L 1466,293 L 1466,290 L 1467,289 L 1467,276 L 1466,275 L 1466,273 L 1465,272 L 1465,271 L 1464,270 L 1464,269 L 1457,262 L 1456,262 L 1455,261 L 1454,261 L 1453,260 L 1452,260 L 1451,259 L 1450,259 L 1449,258 L 1447,258 L 1446,257 L 1444,257 L 1443,256 L 1437,256 L 1436,255 L 1416,255 L 1415,256 L 1407,256 L 1406,257 L 1401,257 L 1400,258 L 1397,258 L 1396,259 L 1393,259 L 1392,260 L 1390,260 L 1389,261 L 1387,261 L 1386,262 L 1384,262 L 1383,263 L 1381,263 L 1380,264 L 1378,264 L 1377,265 L 1375,265 L 1374,266 L 1373,266 L 1372,267 L 1370,267 L 1369,268 L 1368,268 L 1367,269 L 1366,269 L 1365,270 L 1363,270 L 1362,271 L 1361,271 L 1360,272 L 1359,272 L 1358,273 L 1356,273 L 1355,274 L 1354,274 L 1353,275 L 1352,275 L 1351,276 L 1350,276 L 1349,277 L 1348,277 L 1347,278 L 1346,278 L 1345,279 L 1344,279 L 1343,280 L 1342,280 L 1341,281 L 1340,281 L 1339,282 L 1338,282 L 1337,283 L 1336,283 L 1335,284 L 1334,284 L 1333,285 L 1332,285 L 1331,286 L 1330,286 L 1329,287 L 1328,287 L 1326,289 L 1325,289 L 1324,290 L 1323,290 L 1321,292 L 1319,292 L 1317,294 L 1316,294 L 1315,295 L 1314,295 L 1313,296 L 1312,296 L 1310,298 L 1309,298 L 1308,299 L 1307,299 L 1305,301 L 1304,301 L 1303,302 L 1302,302 L 1300,304 L 1299,304 L 1297,306 L 1296,306 L 1295,307 L 1294,307 L 1292,309 L 1291,309 L 1290,310 L 1289,310 L 1286,313 L 1285,313 L 1284,314 L 1283,314 L 1281,316 L 1280,316 L 1278,318 L 1277,318 L 1275,320 L 1274,320 L 1272,322 L 1271,322 L 1269,324 L 1268,324 L 1264,328 L 1263,328 L 1262,329 L 1261,329 L 1258,332 L 1257,332 L 1254,335 L 1253,335 L 1250,338 L 1249,338 L 1245,342 L 1244,342 L 1241,345 L 1240,345 L 1234,351 L 1233,351 L 1227,357 L 1226,357 L 1207,376 L 1207,377 L 1204,380 L 1204,381 L 1202,383 L 1202,384 L 1200,386 L 1200,388 L 1199,389 L 1199,391 L 1198,392 L 1198,400 L 1199,401 L 1199,403 L 1201,405 L 1201,406 L 1205,410 L 1206,410 L 1208,412 L 1209,412 L 1210,413 L 1211,413 L 1212,414 L 1213,414 L 1214,415 L 1216,415 L 1217,416 L 1219,416 L 1220,417 L 1225,417 L 1226,418 L 1242,418 L 1243,417 L 1250,417 L 1251,416 L 1256,416 L 1257,415 L 1261,415 L 1262,414 L 1265,414 L 1266,413 L 1269,413 L 1270,412 L 1273,412 L 1274,411 L 1277,411 L 1278,410 L 1280,410 L 1281,409 L 1283,409 L 1284,408 L 1286,408 L 1287,407 L 1289,407 L 1290,406 L 1292,406 L 1293,405 L 1295,405 L 1296,404 L 1298,404 L 1299,403 L 1301,403 L 1302,402 L 1303,402 L 1304,401 L 1306,401 L 1307,400 L 1308,400 L 1309,399 L 1310,399 L 1311,398 L 1313,398 L 1314,397 L 1316,397 L 1317,396 L 1318,396 L 1319,395 L 1321,395 L 1322,394 L 1323,394 L 1324,393 L 1325,393 L 1326,392 L 1327,392 L 1328,391 L 1329,391 L 1330,390 L 1332,390 L 1333,389 L 1334,389 L 1335,388 L 1336,388 L 1337,387 L 1338,387 L 1339,386 L 1340,386 L 1341,385 L 1342,385 L 1343,384 L 1345,384 L 1346,383 L 1347,383 L 1348,382 L 1349,382 L 1350,381 L 1352,381 L 1353,380 L 1354,380 L 1355,379 L 1356,379 L 1357,378 L 1358,378 L 1359,377 L 1361,377 L 1362,376 L 1363,376 L 1364,375 L 1366,375 L 1367,374 L 1368,374 L 1369,373 L 1371,373 L 1372,372 L 1373,372 L 1374,371 L 1375,371 L 1376,370 L 1378,370 L 1379,369 L 1380,369 L 1381,368 L 1383,368 L 1384,367 L 1386,367 L 1387,366 L 1389,366 L 1390,365 L 1391,365 L 1392,364 L 1394,364 L 1395,363 L 1396,363 L 1397,362 L 1399,362 L 1400,361 L 1402,361 L 1403,360 L 1405,360 L 1406,359 L 1408,359 L 1409,358 L 1411,358 L 1412,357 L 1414,357 L 1415,356 L 1417,356 L 1418,355 L 1420,355 L 1421,354 L 1428,354 L 1429,355 L 1430,355 L 1431,356 L 1431,357 L 1432,358 L 1432,360 L 1430,362 L 1430,363 L 1426,367 L 1426,368 L 1420,374 L 1420,375 L 1405,390 L 1405,391 L 1386,410 L 1385,410 L 1365,430 L 1364,430 L 1357,437 L 1356,437 L 1349,444 L 1348,444 L 1344,448 L 1343,448 L 1338,453 L 1337,453 L 1332,458 L 1331,458 L 1326,463 L 1325,463 L 1320,468 L 1319,468 L 1312,475 L 1311,475 L 1305,481 L 1304,481 L 1297,488 L 1296,488 L 1288,496 L 1287,496 L 1278,505 L 1277,505 L 1264,518 L 1263,518 L 1224,557 L 1224,558 L 1218,564 L 1218,565 L 1215,568 L 1215,569 L 1213,571 L 1213,572 L 1211,574 L 1211,575 L 1209,577 L 1209,580 L 1208,581 L 1209,582 L 1209,583 L 1211,585 L 1211,586 L 1212,586 L 1216,590 L 1217,590 L 1219,592 L 1221,592 L 1222,593 L 1224,593 L 1225,594 L 1235,594 L 1236,593 L 1239,593 L 1240,592 L 1242,592 L 1243,591 L 1245,591 L 1246,590 L 1247,590 L 1248,589 L 1249,589 L 1250,588 L 1251,588 L 1252,587 L 1253,587 L 1254,586 L 1255,586 L 1256,585 L 1257,585 L 1258,584 L 1259,584 L 1260,583 L 1261,583 L 1263,581 L 1264,581 L 1265,580 L 1266,580 L 1267,579 L 1268,579 L 1270,577 L 1271,577 L 1272,576 L 1273,576 L 1275,574 L 1276,574 L 1278,572 L 1279,572 L 1280,571 L 1281,571 L 1283,569 L 1284,569 L 1286,567 L 1287,567 L 1289,565 L 1290,565 L 1292,563 L 1293,563 L 1294,562 L 1295,562 L 1298,559 L 1299,559 L 1301,557 L 1302,557 L 1304,555 L 1305,555 L 1307,553 L 1308,553 L 1310,551 L 1311,551 L 1314,548 L 1315,548 L 1317,546 L 1318,546 L 1321,543 L 1322,543 L 1324,541 L 1325,541 L 1328,538 L 1329,538 L 1332,535 L 1333,535 L 1336,532 L 1337,532 L 1341,528 L 1342,528 L 1345,525 L 1346,525 L 1351,520 L 1352,520 L 1358,514 L 1359,514 L 1366,507 L 1367,507 L 1373,501 L 1374,501 L 1379,496 L 1380,496 L 1383,493 L 1384,493 L 1386,491 L 1387,491 L 1388,490 L 1390,490 L 1391,491 L 1391,503 L 1390,504 L 1390,512 L 1389,513 L 1389,523 L 1390,524 L 1390,526 L 1391,527 L 1391,528 L 1399,536 L 1400,536 L 1403,539 L 1404,539 L 1406,541 L 1407,541 L 1408,542 L 1410,542 L 1411,543 L 1412,543 L 1413,544 L 1416,544 L 1417,545 L 1430,545 L 1431,544 L 1434,544 L 1435,543 L 1437,543 L 1438,542 L 1440,542 L 1441,541 L 1442,541 L 1443,540 L 1445,540 L 1447,538 L 1448,538 L 1449,537 L 1450,537 L 1451,536 L 1452,536 L 1453,535 L 1454,535 L 1456,533 L 1457,533 L 1458,532 L 1459,532 L 1461,530 L 1462,530 L 1464,528 L 1465,528 L 1466,527 L 1467,527 L 1469,525 L 1470,525 L 1472,523 L 1473,523 L 1475,521 L 1476,521 L 1478,519 L 1479,519 L 1481,517 L 1482,517 L 1484,515 L 1485,515 L 1487,513 L 1488,513 L 1490,511 L 1491,511 L 1494,508 L 1495,508 L 1497,506 L 1498,506 L 1500,504 L 1501,504 L 1504,501 L 1505,501 L 1507,499 L 1508,499 L 1510,497 L 1511,497 L 1515,493 L 1516,493 L 1518,491 L 1519,491 L 1521,489 L 1522,489 L 1526,485 L 1527,485 L 1529,483 L 1530,483 L 1533,480 L 1534,480 L 1537,477 L 1538,477 L 1541,474 L 1542,474 L 1546,470 L 1547,470 L 1549,468 L 1550,468 L 1554,464 L 1555,464 L 1558,461 L 1559,461 L 1563,457 L 1564,457 L 1567,454 L 1568,454 L 1572,450 L 1573,450 L 1576,447 L 1577,447 L 1582,442 L 1583,442 L 1585,440 L 1586,440 L 1590,436 L 1591,436 L 1593,434 L 1594,434 L 1597,431 L 1598,431 L 1600,429 L 1601,429 L 1603,427 L 1604,427 L 1605,426 L 1606,426 L 1607,425 L 1608,425 L 1609,424 L 1610,424 L 1611,423 L 1615,423 L 1616,424 L 1616,427 L 1613,430 L 1613,431 L 1607,437 L 1607,438 L 1598,447 L 1598,448 L 1585,461 L 1585,462 L 1563,484 L 1563,485 L 1542,506 L 1542,507 L 1528,521 L 1528,522 L 1520,530 L 1520,531 L 1513,538 L 1513,539 L 1510,542 L 1510,543 L 1506,547 L 1506,548 L 1504,550 L 1504,551 L 1502,553 L 1502,554 L 1500,556 L 1500,557 L 1499,558 L 1499,559 L 1498,560 L 1498,561 L 1497,562 L 1497,564 L 1496,565 L 1496,566 L 1495,567 L 1495,570 L 1494,571 L 1494,576 L 1493,577 L 1493,587 L 1494,588 L 1494,594 L 1495,595 L 1495,597 L 1496,598 L 1496,600 L 1497,601 L 1497,602 L 1499,604 L 1500,604 L 1501,605 L 1502,605 L 1503,606 L 1507,606 L 1508,607 L 1528,607 L 1529,606 L 1537,606 L 1538,605 L 1543,605 L 1544,604 L 1547,604 L 1548,603 L 1552,603 L 1553,602 L 1556,602 L 1557,601 L 1560,601 L 1561,600 L 1564,600 L 1565,599 L 1567,599 L 1568,598 L 1570,598 L 1571,597 L 1573,597 L 1574,596 L 1576,596 L 1577,595 L 1579,595 L 1580,594 L 1581,594 L 1582,593 L 1585,593 L 1586,592 L 1588,592 L 1589,591 L 1590,591 L 1591,590 L 1593,590 L 1594,589 L 1596,589 L 1597,588 L 1598,588 L 1599,587 L 1601,587 L 1602,586 L 1604,586 L 1605,585 L 1608,585 L 1609,584 L 1611,584 L 1612,583 L 1614,583 L 1615,582 L 1616,582 L 1617,581 L 1619,581 L 1620,580 L 1622,580 L 1623,579 L 1625,579 L 1626,578 L 1629,578 L 1630,577 L 1633,577 L 1634,576 L 1636,576 L 1637,575 L 1639,575 L 1640,574 L 1642,574 L 1643,573 L 1646,573 L 1647,572 L 1649,572 L 1650,571 L 1654,571 L 1655,570 L 1659,570 L 1660,569 L 1663,569 L 1664,568 L 1667,568 L 1668,567 L 1672,567 L 1673,566 L 1677,566 L 1678,565 L 1683,565 L 1684,564 L 1691,564 L 1692,563 L 1701,563 L 1702,562 L 1729,562 L 1730,563 L 1736,563 L 1737,564 L 1741,564 L 1742,565 L 1745,565 L 1746,566 L 1748,566 L 1749,567 L 1751,567 L 1752,568 L 1753,568 L 1754,569 L 1756,569 L 1757,570 L 1759,570 L 1760,571 L 1761,571 L 1762,572 L 1764,572 L 1765,573 L 1766,573 L 1767,574 L 1768,574 L 1769,575 L 1770,575 L 1771,576 L 1772,576 L 1773,577 L 1774,577 L 1775,578 L 1777,578 L 1778,579 L 1779,579 L 1780,580 L 1781,580 L 1782,581 L 1783,581 L 1784,582 L 1785,582 L 1786,583 L 1787,583 L 1788,584 L 1789,584 L 1790,585 L 1791,585 L 1792,586 L 1793,586 L 1794,587 L 1795,587 L 1797,589 L 1798,589 L 1799,590 L 1800,590 L 1801,591 L 1802,591 L 1803,592 L 1804,592 L 1805,593 L 1807,593 L 1808,594 L 1809,594 L 1810,595 L 1811,595 L 1812,596 L 1813,596 L 1814,597 L 1815,597 L 1816,598 L 1817,598 L 1818,599 L 1820,599 L 1821,600 L 1823,600 L 1824,601 L 1825,601 L 1826,602 L 1828,602 L 1829,603 L 1830,603 L 1831,604 L 1833,604 L 1834,605 L 1836,605 L 1837,606 L 1839,606 L 1840,607 L 1843,607 L 1844,608 L 1848,608 L 1849,609 L 1852,609 L 1853,610 L 1859,610 L 1860,611 L 1866,611 L 1867,610 L 1869,610 L 1870,609 L 1871,609 L 1872,608 L 1872,603 L 1871,602 L 1871,601 L 1870,600 L 1869,600 L 1867,598 L 1866,598 L 1865,597 L 1864,597 L 1863,596 L 1861,596 L 1860,595 L 1858,595 L 1857,594 L 1855,594 L 1854,593 L 1845,593 L 1844,592 L 1841,592 L 1840,591 L 1838,591 L 1837,590 L 1835,590 L 1834,589 L 1832,589 L 1831,588 L 1830,588 L 1829,587 L 1827,587 L 1826,586 L 1825,586 L 1824,585 L 1823,585 L 1822,584 L 1821,584 L 1820,583 L 1818,583 L 1817,582 L 1816,582 L 1815,581 L 1814,581 L 1813,580 L 1812,580 L 1811,579 L 1810,579 L 1809,578 L 1808,578 L 1807,577 L 1806,577 L 1805,576 L 1804,576 L 1803,575 L 1802,575 L 1801,574 L 1800,574 L 1799,573 L 1798,573 L 1797,572 L 1796,572 L 1795,571 L 1794,571 L 1793,570 L 1792,570 L 1791,569 L 1790,569 L 1789,568 L 1788,568 L 1787,567 L 1786,567 L 1785,566 L 1784,566 L 1783,565 L 1782,565 L 1781,564 L 1780,564 L 1779,563 L 1778,563 L 1777,562 L 1775,562 L 1774,561 L 1772,561 L 1771,560 L 1770,560 L 1769,559 L 1768,559 L 1767,558 L 1766,558 L 1765,557 L 1763,557 L 1762,556 L 1761,556 L 1760,555 L 1758,555 L 1757,554 L 1755,554 L 1754,553 L 1752,553 L 1751,552 L 1749,552 L 1748,551 L 1746,551 L 1745,550 L 1742,550 L 1741,549 L 1738,549 L 1737,548 L 1731,548 L 1730,547 L 1694,547 L 1693,548 L 1686,548 L 1685,549 L 1679,549 L 1678,550 L 1674,550 L 1673,551 L 1669,551 L 1668,552 L 1665,552 L 1664,553 L 1660,553 L 1659,554 L 1655,554 L 1654,555 L 1651,555 L 1650,556 L 1647,556 L 1646,557 L 1644,557 L 1643,558 L 1640,558 L 1639,559 L 1637,559 L 1636,560 L 1633,560 L 1632,561 L 1629,561 L 1628,562 L 1626,562 L 1625,563 L 1623,563 L 1622,564 L 1620,564 L 1619,565 L 1617,565 L 1616,566 L 1614,566 L 1613,567 L 1611,567 L 1610,568 L 1607,568 L 1606,569 L 1604,569 L 1603,570 L 1601,570 L 1600,571 L 1599,571 L 1598,572 L 1596,572 L 1595,573 L 1593,573 L 1592,574 L 1591,574 L 1590,575 L 1587,575 L 1586,576 L 1584,576 L 1583,577 L 1582,577 L 1581,578 L 1579,578 L 1578,579 L 1576,579 L 1575,580 L 1574,580 L 1573,581 L 1571,581 L 1570,582 L 1568,582 L 1567,583 L 1564,583 L 1563,584 L 1561,584 L 1560,585 L 1558,585 L 1557,586 L 1554,586 L 1553,587 L 1551,587 L 1550,588 L 1547,588 L 1546,589 L 1543,589 L 1542,590 L 1538,590 L 1537,591 L 1532,591 L 1531,592 L 1524,592 L 1523,593 L 1513,593 L 1512,592 L 1509,592 L 1506,589 L 1506,588 L 1505,587 L 1505,583 L 1506,582 L 1506,579 L 1507,578 L 1507,576 L 1508,575 L 1508,573 L 1509,572 L 1509,571 L 1510,570 L 1510,569 L 1511,568 L 1511,567 L 1512,566 L 1512,565 L 1514,563 L 1514,562 L 1515,561 L 1515,560 L 1516,559 L 1516,558 L 1520,554 L 1520,553 L 1522,551 L 1522,550 L 1526,546 L 1526,545 L 1531,540 L 1531,539 L 1540,530 L 1540,529 L 1552,517 L 1552,516 L 1567,501 L 1567,500 L 1569,498 L 1570,498 L 1571,497 L 1571,496 L 1588,479 L 1588,478 L 1601,465 L 1601,464 L 1608,457 L 1608,456 L 1614,450 L 1614,449 L 1618,445 L 1618,444 L 1621,441 L 1621,440 L 1624,437 L 1624,436 L 1626,434 L 1626,433 L 1629,430 L 1629,429 L 1632,426 L 1632,425 L 1635,422 L 1635,421 L 1640,416 L 1640,415 L 1644,411 L 1644,410 L 1645,409 L 1645,408 L 1646,407 L 1646,406 L 1647,405 L 1647,399 L 1646,398 L 1646,397 L 1645,396 L 1644,396 L 1643,395 L 1642,395 L 1641,394 L 1633,394 L 1632,395 L 1631,395 L 1626,400 L 1625,400 L 1623,402 L 1622,402 L 1620,404 L 1619,404 L 1617,406 L 1616,406 L 1614,408 L 1613,408 L 1612,409 L 1611,409 L 1610,410 L 1609,410 L 1607,412 L 1606,412 L 1605,413 L 1604,413 L 1602,415 L 1601,415 L 1600,416 L 1599,416 L 1597,418 L 1596,418 L 1594,420 L 1593,420 L 1591,422 L 1590,422 L 1588,424 L 1587,424 L 1585,426 L 1584,426 L 1582,428 L 1581,428 L 1579,430 L 1578,430 L 1576,432 L 1575,432 L 1573,434 L 1572,434 L 1569,437 L 1568,437 L 1566,439 L 1565,439 L 1563,441 L 1562,441 L 1559,444 L 1558,444 L 1556,446 L 1555,446 L 1553,448 L 1552,448 L 1549,451 L 1548,451 L 1546,453 L 1545,453 L 1543,455 L 1542,455 L 1539,458 L 1538,458 L 1536,460 L 1535,460 L 1532,463 L 1531,463 L 1528,466 L 1527,466 L 1525,468 L 1524,468 L 1521,471 L 1520,471 L 1517,474 L 1516,474 L 1514,476 L 1513,476 L 1510,479 L 1509,479 L 1507,481 L 1506,481 L 1503,484 L 1502,484 L 1499,487 L 1498,487 L 1496,489 L 1495,489 L 1493,491 L 1492,491 L 1489,494 L 1488,494 L 1486,496 L 1485,496 L 1483,498 L 1482,498 L 1480,500 L 1479,500 L 1476,503 L 1475,503 L 1474,504 L 1473,504 L 1471,506 L 1470,506 L 1467,509 L 1466,509 L 1465,510 L 1464,510 L 1462,512 L 1461,512 L 1459,514 L 1458,514 L 1456,516 L 1455,516 L 1454,517 L 1453,517 L 1452,518 L 1451,518 L 1449,520 L 1448,520 L 1447,521 L 1446,521 L 1444,523 L 1443,523 L 1442,524 L 1441,524 L 1440,525 L 1438,525 L 1437,526 L 1436,526 L 1435,527 L 1434,527 L 1433,528 L 1431,528 L 1430,529 L 1428,529 L 1427,530 L 1416,530 L 1415,529 L 1414,529 L 1413,528 L 1412,528 L 1411,527 L 1410,527 L 1406,523 L 1406,522 L 1405,521 L 1405,519 L 1404,518 L 1404,500 L 1405,499 L 1405,496 L 1406,495 L 1406,493 L 1407,492 L 1407,490 L 1408,489 L 1408,488 L 1409,487 L 1409,486 L 1410,485 L 1410,484 L 1411,483 L 1411,482 L 1412,481 L 1412,480 L 1413,479 L 1413,478 L 1415,476 L 1415,475 L 1417,473 L 1417,472 L 1420,469 L 1420,468 L 1423,465 L 1423,464 L 1428,459 L 1428,458 L 1453,433 L 1454,433 L 1461,426 L 1462,426 L 1468,420 L 1469,420 L 1473,416 L 1474,416 L 1478,412 L 1479,412 L 1482,409 L 1483,409 L 1488,404 L 1489,404 L 1496,397 L 1497,397 L 1511,383 L 1512,383 L 1528,367 L 1529,367 L 1563,333 L 1564,333 L 1664,233 L 1664,232 L 1685,211 L 1685,210 L 1696,199 L 1696,198 L 1698,196 L 1698,195 L 1699,194 L 1699,191 L 1698,190 L 1698,189 L 1697,188 L 1697,187 L 1694,184 L 1693,184 L 1692,183 L 1691,183 L 1690,182 L 1689,182 L 1688,181" fill="none" stroke="black" stroke-width="2" /><path d="M 632,120 L 631,121 L 629,121 L 628,122 L 627,122 L 626,123 L 625,123 L 624,124 L 623,124 L 622,125 L 621,125 L 620,126 L 619,126 L 618,127 L 617,127 L 615,129 L 614,129 L 612,131 L 611,131 L 610,132 L 609,132 L 607,134 L 606,134 L 604,136 L 603,136 L 600,139 L 599,139 L 598,140 L 597,140 L 595,142 L 594,142 L 591,145 L 590,145 L 588,147 L 587,147 L 586,148 L 585,148 L 582,151 L 581,151 L 579,153 L 578,153 L 576,155 L 575,155 L 573,157 L 572,157 L 570,159 L 569,159 L 567,161 L 566,161 L 564,163 L 563,163 L 561,165 L 560,165 L 557,168 L 556,168 L 555,169 L 554,169 L 552,171 L 551,171 L 548,174 L 547,174 L 545,176 L 544,176 L 542,178 L 541,178 L 538,181 L 537,181 L 535,183 L 534,183 L 531,186 L 530,186 L 528,188 L 527,188 L 524,191 L 523,191 L 521,193 L 520,193 L 516,197 L 515,197 L 513,199 L 512,199 L 509,202 L 508,202 L 506,204 L 505,204 L 502,207 L 501,207 L 498,210 L 497,210 L 494,213 L 493,213 L 491,215 L 490,215 L 486,219 L 485,219 L 483,221 L 482,221 L 479,224 L 478,224 L 475,227 L 474,227 L 472,229 L 471,229 L 467,233 L 466,233 L 464,235 L 463,235 L 460,238 L 459,238 L 456,241 L 455,241 L 452,244 L 451,244 L 447,248 L 446,248 L 444,250 L 443,250 L 439,254 L 438,254 L 435,257 L 434,257 L 431,260 L 430,260 L 427,263 L 426,263 L 423,266 L 422,266 L 418,270 L 417,270 L 413,274 L 412,274 L 408,278 L 407,278 L 400,285 L 399,285 L 392,292 L 391,292 L 384,299 L 383,299 L 377,305 L 376,305 L 370,311 L 369,311 L 360,320 L 359,320 L 342,337 L 341,337 L 268,410 L 267,410 L 261,416 L 260,416 L 259,417 L 258,416 L 258,415 L 259,414 L 259,413 L 261,411 L 261,410 L 263,408 L 263,407 L 265,405 L 265,404 L 267,402 L 267,401 L 271,397 L 271,396 L 274,393 L 274,392 L 278,388 L 278,387 L 281,384 L 281,383 L 286,378 L 286,377 L 290,373 L 290,372 L 295,367 L 295,366 L 299,362 L 299,361 L 303,357 L 303,356 L 309,350 L 309,349 L 314,344 L 314,343 L 317,340 L 317,339 L 322,334 L 322,333 L 325,330 L 325,329 L 329,325 L 329,324 L 332,321 L 332,320 L 336,316 L 336,315 L 339,312 L 339,311 L 342,308 L 342,307 L 345,304 L 345,303 L 348,300 L 348,299 L 352,295 L 352,294 L 354,292 L 354,291 L 358,287 L 358,286 L 360,284 L 360,283 L 363,280 L 363,279 L 366,276 L 366,275 L 368,273 L 368,272 L 371,269 L 371,268 L 374,265 L 374,264 L 376,262 L 376,261 L 379,258 L 379,257 L 381,255 L 381,254 L 384,251 L 384,250 L 386,248 L 386,247 L 389,244 L 389,243 L 391,241 L 391,240 L 393,238 L 393,237 L 395,235 L 395,234 L 397,232 L 397,231 L 399,229 L 399,228 L 401,226 L 401,225 L 403,223 L 403,222 L 404,221 L 404,220 L 406,218 L 406,217 L 408,215 L 408,214 L 409,213 L 409,212 L 411,210 L 411,209 L 412,208 L 412,207 L 413,206 L 413,205 L 414,204 L 414,203 L 415,202 L 415,201 L 416,200 L 416,199 L 417,198 L 417,197 L 418,196 L 418,194 L 419,193 L 419,190 L 420,189 L 420,185 L 421,184 L 421,169 L 420,168 L 420,167 L 418,165 L 405,165 L 404,166 L 401,166 L 400,167 L 398,167 L 397,168 L 395,168 L 394,169 L 391,169 L 390,170 L 389,170 L 388,171 L 386,171 L 385,172 L 384,172 L 383,173 L 382,173 L 381,174 L 380,174 L 379,175 L 378,175 L 377,176 L 375,176 L 374,177 L 373,177 L 372,178 L 371,178 L 370,179 L 369,179 L 368,180 L 367,180 L 366,181 L 365,181 L 364,182 L 363,182 L 362,183 L 361,183 L 360,184 L 359,184 L 358,185 L 357,185 L 355,187 L 354,187 L 353,188 L 352,188 L 351,189 L 350,189 L 348,191 L 347,191 L 346,192 L 345,192 L 344,193 L 343,193 L 341,195 L 340,195 L 339,196 L 338,196 L 337,197 L 336,197 L 334,199 L 333,199 L 332,200 L 331,200 L 329,202 L 328,202 L 326,204 L 325,204 L 324,205 L 323,205 L 321,207 L 320,207 L 318,209 L 317,209 L 315,211 L 314,211 L 312,213 L 311,213 L 310,214 L 309,214 L 307,216 L 306,216 L 303,219 L 302,219 L 301,220 L 300,220 L 297,223 L 296,223 L 294,225 L 293,225 L 291,227 L 290,227 L 288,229 L 287,229 L 283,233 L 282,233 L 280,235 L 279,235 L 277,237 L 276,237 L 273,240 L 272,240 L 269,243 L 268,243 L 265,246 L 264,246 L 261,249 L 260,249 L 256,253 L 255,253 L 252,256 L 251,256 L 245,262 L 244,262 L 241,265 L 240,265 L 233,272 L 232,272 L 212,292 L 212,293 L 209,296 L 209,297 L 207,299 L 207,300 L 206,301 L 206,303 L 205,304 L 205,309 L 206,310 L 206,311 L 209,314 L 211,314 L 212,315 L 213,315 L 214,314 L 217,314 L 218,313 L 219,313 L 221,311 L 222,311 L 228,305 L 228,304 L 230,302 L 230,301 L 232,299 L 232,298 L 235,295 L 235,294 L 239,290 L 239,289 L 241,287 L 242,287 L 243,286 L 243,285 L 248,280 L 249,280 L 257,272 L 258,272 L 264,266 L 265,266 L 270,261 L 271,261 L 274,258 L 275,258 L 279,254 L 280,254 L 283,251 L 284,251 L 287,248 L 288,248 L 291,245 L 292,245 L 294,243 L 295,243 L 298,240 L 299,240 L 302,237 L 303,237 L 305,235 L 306,235 L 308,233 L 309,233 L 312,230 L 313,230 L 315,228 L 316,228 L 318,226 L 319,226 L 321,224 L 322,224 L 324,222 L 325,222 L 327,220 L 328,220 L 330,218 L 331,218 L 333,216 L 334,216 L 335,215 L 336,215 L 338,213 L 339,213 L 341,211 L 342,211 L 344,209 L 345,209 L 346,208 L 347,208 L 348,207 L 349,207 L 351,205 L 352,205 L 354,203 L 355,203 L 356,202 L 357,202 L 358,201 L 359,201 L 361,199 L 362,199 L 363,198 L 364,198 L 365,197 L 366,197 L 368,195 L 369,195 L 370,194 L 371,194 L 372,193 L 373,193 L 374,192 L 375,192 L 376,191 L 377,191 L 378,190 L 379,190 L 381,188 L 382,188 L 383,187 L 385,187 L 386,186 L 387,186 L 388,185 L 389,185 L 390,184 L 392,184 L 393,183 L 394,183 L 395,182 L 397,182 L 398,181 L 400,181 L 401,180 L 407,180 L 409,182 L 409,184 L 408,185 L 408,186 L 407,187 L 407,189 L 405,191 L 405,192 L 403,194 L 403,195 L 402,196 L 402,197 L 401,198 L 401,199 L 399,201 L 399,202 L 397,204 L 397,205 L 395,207 L 395,208 L 394,209 L 394,210 L 392,212 L 392,213 L 390,215 L 390,216 L 388,218 L 388,219 L 386,221 L 386,222 L 385,223 L 385,224 L 382,227 L 382,228 L 380,230 L 380,231 L 379,232 L 379,233 L 376,236 L 376,237 L 374,239 L 374,240 L 372,242 L 372,243 L 370,245 L 370,246 L 367,249 L 367,250 L 365,252 L 365,253 L 363,255 L 363,256 L 360,259 L 360,260 L 358,262 L 358,263 L 356,265 L 356,266 L 354,268 L 354,269 L 351,272 L 351,273 L 349,275 L 349,276 L 346,279 L 346,280 L 344,282 L 344,283 L 341,286 L 341,287 L 338,290 L 338,291 L 336,293 L 336,294 L 333,297 L 333,298 L 330,301 L 330,302 L 327,305 L 327,306 L 323,310 L 323,311 L 321,313 L 321,314 L 317,318 L 317,319 L 313,323 L 313,324 L 309,328 L 309,329 L 306,332 L 306,333 L 302,337 L 302,338 L 299,341 L 299,342 L 294,347 L 294,348 L 291,351 L 291,352 L 287,356 L 287,357 L 284,360 L 284,361 L 279,366 L 279,367 L 277,369 L 277,370 L 272,375 L 272,376 L 269,379 L 269,380 L 265,384 L 265,385 L 262,388 L 262,389 L 258,393 L 258,394 L 255,397 L 255,398 L 251,402 L 251,403 L 249,405 L 249,406 L 245,410 L 245,411 L 242,414 L 242,415 L 239,418 L 239,419 L 236,422 L 236,423 L 233,426 L 233,427 L 229,431 L 229,432 L 227,434 L 227,435 L 223,439 L 223,440 L 220,443 L 220,444 L 216,448 L 216,449 L 213,452 L 213,453 L 210,456 L 210,457 L 206,461 L 206,462 L 204,464 L 204,465 L 200,469 L 200,470 L 197,473 L 197,474 L 193,478 L 193,479 L 190,482 L 190,483 L 187,486 L 187,487 L 183,491 L 183,492 L 180,495 L 180,496 L 176,500 L 176,501 L 173,504 L 173,505 L 169,509 L 169,510 L 166,513 L 166,514 L 162,518 L 162,519 L 160,521 L 160,522 L 156,526 L 156,527 L 153,530 L 153,531 L 149,535 L 149,536 L 146,539 L 146,540 L 142,544 L 142,545 L 139,548 L 139,549 L 136,552 L 136,553 L 132,557 L 132,558 L 129,561 L 129,562 L 126,565 L 126,566 L 122,570 L 122,571 L 119,574 L 119,575 L 116,578 L 116,579 L 112,583 L 112,584 L 110,586 L 110,587 L 106,591 L 106,592 L 104,594 L 104,595 L 100,599 L 100,600 L 97,603 L 97,604 L 95,606 L 95,607 L 92,610 L 92,611 L 89,614 L 89,615 L 87,617 L 87,618 L 84,621 L 84,622 L 82,624 L 82,625 L 80,627 L 80,628 L 78,630 L 78,631 L 76,633 L 76,634 L 74,636 L 74,637 L 73,638 L 73,639 L 72,640 L 72,641 L 71,642 L 71,643 L 70,644 L 70,650 L 72,652 L 74,652 L 75,653 L 78,653 L 79,652 L 81,652 L 82,651 L 83,651 L 90,644 L 90,643 L 92,641 L 92,640 L 93,639 L 93,638 L 95,636 L 95,635 L 98,632 L 98,631 L 100,629 L 100,628 L 103,625 L 103,624 L 106,621 L 106,620 L 109,617 L 109,616 L 113,612 L 113,611 L 117,607 L 117,606 L 120,603 L 120,602 L 124,598 L 124,597 L 128,593 L 128,592 L 132,588 L 132,587 L 136,583 L 136,582 L 140,578 L 140,577 L 143,574 L 143,573 L 148,568 L 148,567 L 153,562 L 153,561 L 157,557 L 157,556 L 161,552 L 161,551 L 165,547 L 165,546 L 171,540 L 171,539 L 176,534 L 176,533 L 180,529 L 180,528 L 185,523 L 185,522 L 191,516 L 191,515 L 195,511 L 195,510 L 201,504 L 201,503 L 207,497 L 207,496 L 214,489 L 214,488 L 221,481 L 221,480 L 229,472 L 229,471 L 242,458 L 242,457 L 261,438 L 261,437 L 322,376 L 323,376 L 346,353 L 347,353 L 362,338 L 363,338 L 376,325 L 377,325 L 385,317 L 386,317 L 393,310 L 394,310 L 401,303 L 402,303 L 407,298 L 408,298 L 412,294 L 413,294 L 418,289 L 419,289 L 422,286 L 423,286 L 428,281 L 429,281 L 432,278 L 433,278 L 437,274 L 438,274 L 442,270 L 443,270 L 446,267 L 447,267 L 450,264 L 451,264 L 456,259 L 457,259 L 459,257 L 460,257 L 465,252 L 466,252 L 468,250 L 469,250 L 473,246 L 474,246 L 477,243 L 478,243 L 482,239 L 483,239 L 486,236 L 487,236 L 490,233 L 491,233 L 495,229 L 496,229 L 499,226 L 500,226 L 503,223 L 504,223 L 507,220 L 508,220 L 511,217 L 512,217 L 515,214 L 516,214 L 519,211 L 520,211 L 523,208 L 524,208 L 527,205 L 528,205 L 532,201 L 533,201 L 536,198 L 537,198 L 540,195 L 541,195 L 544,192 L 545,192 L 549,188 L 550,188 L 553,185 L 554,185 L 557,182 L 558,182 L 561,179 L 562,179 L 566,175 L 567,175 L 570,172 L 571,172 L 575,168 L 576,168 L 580,164 L 581,164 L 584,161 L 585,161 L 588,158 L 589,158 L 591,156 L 592,156 L 593,155 L 595,155 L 597,157 L 597,160 L 595,162 L 595,163 L 593,165 L 593,166 L 589,170 L 589,171 L 581,179 L 581,180 L 564,197 L 563,197 L 509,251 L 509,252 L 505,256 L 504,256 L 504,257 L 482,279 L 482,280 L 467,295 L 467,296 L 453,310 L 453,311 L 442,322 L 442,323 L 432,333 L 432,334 L 423,343 L 423,344 L 415,352 L 415,353 L 407,361 L 407,362 L 400,369 L 400,370 L 393,377 L 393,378 L 386,385 L 386,386 L 379,393 L 379,394 L 373,400 L 373,401 L 368,406 L 368,407 L 363,412 L 363,413 L 358,418 L 358,419 L 352,425 L 352,426 L 349,429 L 349,430 L 344,435 L 344,436 L 341,439 L 341,440 L 337,444 L 337,445 L 334,448 L 334,449 L 330,453 L 330,454 L 328,456 L 328,457 L 324,461 L 324,462 L 322,464 L 322,465 L 319,468 L 319,469 L 316,472 L 316,473 L 314,475 L 314,476 L 312,478 L 312,479 L 309,482 L 309,483 L 307,485 L 307,486 L 305,488 L 305,489 L 303,491 L 303,492 L 301,494 L 301,495 L 299,497 L 299,498 L 298,499 L 298,500 L 296,502 L 296,503 L 294,505 L 294,506 L 293,507 L 293,508 L 292,509 L 292,510 L 291,511 L 291,512 L 289,514 L 289,515 L 288,516 L 288,517 L 287,518 L 287,519 L 286,520 L 286,521 L 285,522 L 285,524 L 284,525 L 284,527 L 283,528 L 283,529 L 282,530 L 282,532 L 281,533 L 281,538 L 280,539 L 280,541 L 281,542 L 281,545 L 282,546 L 282,547 L 285,550 L 286,550 L 287,551 L 288,551 L 289,552 L 293,552 L 294,551 L 296,551 L 297,550 L 299,550 L 300,549 L 301,549 L 303,547 L 304,547 L 307,544 L 308,544 L 312,540 L 313,540 L 328,525 L 329,525 L 329,524 L 352,501 L 352,500 L 368,484 L 368,483 L 393,458 L 393,457 L 394,456 L 395,456 L 397,454 L 397,453 L 402,448 L 403,448 L 405,446 L 405,445 L 407,443 L 408,443 L 427,424 L 428,424 L 437,415 L 438,415 L 445,408 L 446,408 L 452,402 L 453,402 L 458,397 L 459,397 L 463,393 L 464,393 L 468,389 L 469,389 L 472,386 L 473,386 L 477,382 L 478,382 L 481,379 L 482,379 L 485,376 L 486,376 L 488,374 L 489,374 L 493,370 L 494,370 L 496,368 L 497,368 L 499,366 L 500,366 L 503,363 L 504,363 L 506,361 L 507,361 L 509,359 L 510,359 L 513,356 L 514,356 L 516,354 L 517,354 L 519,352 L 520,352 L 523,349 L 524,349 L 526,347 L 527,347 L 529,345 L 530,345 L 532,343 L 533,343 L 536,340 L 537,340 L 539,338 L 540,338 L 542,336 L 543,336 L 545,334 L 546,334 L 548,332 L 549,332 L 551,330 L 552,330 L 554,328 L 555,328 L 558,325 L 559,325 L 560,324 L 561,324 L 563,322 L 564,322 L 567,319 L 568,319 L 570,317 L 571,317 L 572,316 L 573,316 L 575,314 L 576,314 L 579,311 L 580,311 L 581,310 L 582,310 L 584,308 L 585,308 L 587,306 L 588,306 L 590,304 L 591,304 L 592,303 L 593,303 L 595,301 L 596,301 L 597,300 L 598,300 L 600,298 L 601,298 L 603,296 L 604,296 L 605,295 L 607,295 L 608,294 L 611,294 L 612,295 L 611,296 L 611,297 L 610,298 L 610,299 L 608,301 L 608,302 L 604,306 L 604,307 L 599,312 L 599,313 L 590,322 L 590,323 L 575,338 L 575,339 L 516,398 L 516,399 L 515,400 L 514,400 L 509,405 L 509,406 L 507,408 L 506,408 L 503,411 L 503,412 L 499,416 L 498,416 L 496,418 L 496,419 L 460,455 L 460,456 L 445,471 L 445,472 L 434,483 L 434,484 L 427,491 L 427,492 L 422,497 L 422,498 L 416,504 L 416,505 L 413,508 L 413,509 L 409,513 L 409,514 L 405,518 L 405,519 L 402,522 L 402,523 L 399,526 L 399,527 L 397,529 L 397,530 L 395,532 L 395,533 L 394,534 L 394,536 L 393,537 L 393,545 L 394,546 L 394,547 L 395,548 L 397,548 L 398,549 L 403,549 L 404,548 L 406,548 L 408,546 L 409,546 L 410,545 L 411,545 L 413,543 L 414,543 L 416,541 L 417,541 L 420,538 L 421,538 L 424,535 L 425,535 L 429,531 L 430,531 L 435,526 L 436,526 L 443,519 L 444,519 L 451,512 L 452,512 L 458,506 L 459,506 L 466,499 L 467,499 L 474,492 L 475,492 L 481,486 L 482,486 L 488,480 L 489,480 L 495,474 L 496,474 L 501,469 L 502,469 L 507,464 L 508,464 L 510,462 L 511,462 L 514,459 L 515,459 L 517,457 L 518,457 L 519,456 L 520,456 L 521,455 L 523,455 L 524,456 L 524,457 L 525,458 L 524,459 L 524,461 L 523,462 L 523,463 L 521,465 L 521,466 L 519,468 L 519,469 L 518,470 L 518,471 L 516,473 L 516,474 L 514,476 L 514,477 L 512,479 L 512,480 L 510,482 L 510,483 L 508,485 L 508,486 L 506,488 L 506,489 L 504,491 L 504,492 L 502,494 L 502,495 L 500,497 L 500,498 L 497,501 L 497,502 L 495,504 L 495,505 L 493,507 L 493,508 L 490,511 L 490,512 L 488,514 L 488,515 L 486,517 L 486,518 L 483,521 L 483,522 L 481,524 L 481,525 L 479,527 L 479,528 L 476,531 L 476,532 L 473,535 L 473,536 L 471,538 L 471,539 L 467,543 L 467,544 L 465,546 L 465,547 L 461,551 L 461,552 L 458,555 L 458,556 L 455,559 L 455,560 L 453,562 L 453,563 L 451,565 L 451,566 L 450,567 L 450,568 L 448,570 L 448,571 L 447,572 L 447,574 L 446,575 L 446,577 L 445,578 L 445,582 L 446,583 L 446,584 L 447,585 L 448,585 L 449,586 L 450,586 L 451,585 L 452,585 L 455,582 L 456,582 L 460,578 L 461,578 L 467,572 L 468,572 L 478,562 L 479,562 L 502,539 L 503,539 L 516,526 L 517,526 L 524,519 L 525,519 L 530,514 L 531,514 L 534,511 L 535,511 L 536,510 L 537,510 L 538,509 L 539,509 L 541,511 L 541,512 L 542,513 L 542,518 L 541,519 L 541,525 L 540,526 L 540,537 L 541,538 L 541,540 L 542,541 L 542,543 L 547,548 L 548,548 L 549,549 L 556,549 L 557,548 L 559,548 L 560,547 L 561,547 L 564,544 L 565,544 L 569,540 L 570,540 L 570,539 L 576,533 L 576,532 L 579,529 L 579,528 L 583,524 L 583,523 L 586,520 L 586,519 L 590,515 L 590,514 L 593,511 L 593,510 L 597,506 L 597,505 L 600,502 L 600,501 L 603,498 L 603,497 L 606,494 L 606,493 L 609,490 L 609,489 L 613,485 L 613,484 L 616,481 L 616,480 L 619,477 L 619,476 L 622,473 L 622,472 L 626,468 L 626,467 L 629,464 L 629,463 L 633,459 L 633,458 L 636,455 L 636,454 L 640,450 L 640,449 L 644,445 L 644,444 L 650,438 L 650,437 L 658,429 L 658,428 L 661,425 L 662,425 L 667,420 L 668,420 L 669,421 L 669,423 L 668,424 L 668,425 L 667,426 L 667,427 L 666,428 L 666,429 L 665,430 L 665,431 L 663,433 L 663,435 L 661,437 L 661,438 L 660,439 L 660,440 L 659,441 L 659,442 L 657,444 L 657,445 L 656,446 L 656,447 L 655,448 L 655,449 L 654,450 L 654,451 L 652,453 L 652,454 L 650,456 L 650,457 L 649,458 L 649,459 L 648,460 L 648,461 L 646,463 L 646,464 L 645,465 L 645,466 L 643,468 L 643,469 L 642,470 L 642,471 L 641,472 L 641,473 L 639,475 L 639,476 L 638,477 L 638,478 L 637,479 L 637,480 L 635,482 L 635,483 L 634,484 L 634,485 L 633,486 L 633,487 L 632,488 L 632,489 L 631,490 L 631,491 L 630,492 L 630,493 L 629,494 L 629,495 L 628,496 L 628,497 L 627,498 L 627,499 L 626,500 L 626,501 L 625,502 L 625,504 L 624,505 L 624,506 L 623,507 L 623,508 L 622,509 L 622,510 L 621,511 L 621,512 L 620,513 L 620,515 L 619,516 L 619,518 L 618,519 L 618,520 L 617,521 L 617,523 L 616,524 L 616,526 L 615,527 L 615,529 L 614,530 L 614,532 L 613,533 L 613,537 L 612,538 L 612,549 L 613,550 L 613,552 L 618,557 L 619,557 L 620,558 L 621,558 L 622,559 L 630,559 L 631,558 L 632,558 L 638,552 L 638,551 L 644,545 L 644,544 L 649,539 L 649,538 L 653,534 L 653,533 L 657,529 L 657,528 L 660,525 L 660,524 L 665,519 L 665,518 L 667,516 L 667,515 L 672,510 L 672,509 L 675,506 L 675,505 L 679,501 L 679,500 L 682,497 L 682,496 L 686,492 L 686,491 L 688,489 L 688,488 L 692,484 L 692,483 L 695,480 L 695,479 L 699,475 L 699,474 L 702,471 L 702,470 L 705,467 L 705,466 L 708,463 L 708,462 L 710,460 L 710,459 L 714,455 L 714,454 L 716,452 L 716,451 L 719,448 L 719,447 L 722,444 L 722,443 L 725,440 L 725,439 L 728,436 L 728,435 L 730,433 L 730,432 L 732,430 L 732,429 L 735,426 L 735,425 L 738,422 L 738,421 L 740,419 L 740,418 L 743,415 L 743,414 L 747,410 L 747,409 L 749,407 L 750,407 L 753,404 L 755,404 L 756,403 L 760,403 L 761,402 L 772,402 L 773,401 L 779,401 L 780,402 L 785,402 L 786,403 L 787,403 L 788,404 L 788,406 L 787,407 L 787,408 L 786,409 L 786,410 L 785,411 L 785,412 L 782,415 L 782,416 L 779,419 L 779,420 L 776,423 L 776,424 L 772,428 L 772,429 L 767,434 L 767,435 L 763,439 L 763,440 L 760,443 L 760,444 L 757,447 L 757,448 L 756,449 L 756,450 L 753,453 L 753,454 L 751,456 L 751,457 L 750,458 L 750,459 L 749,460 L 749,461 L 748,462 L 748,463 L 747,464 L 747,465 L 746,466 L 746,467 L 745,468 L 745,470 L 744,471 L 744,473 L 743,474 L 743,478 L 742,479 L 742,498 L 743,499 L 743,502 L 744,503 L 744,505 L 745,506 L 745,507 L 747,509 L 747,510 L 753,516 L 754,516 L 756,518 L 757,518 L 759,520 L 760,520 L 761,521 L 763,521 L 764,522 L 765,522 L 766,523 L 767,523 L 768,524 L 770,524 L 771,525 L 772,525 L 773,526 L 776,526 L 777,527 L 780,527 L 781,528 L 784,528 L 785,529 L 788,529 L 789,530 L 791,530 L 792,531 L 796,531 L 797,532 L 800,532 L 801,533 L 805,533 L 806,534 L 811,534 L 812,535 L 818,535 L 819,536 L 824,536 L 825,537 L 829,537 L 830,538 L 835,538 L 836,539 L 841,539 L 842,540 L 847,540 L 848,541 L 855,541 L 856,542 L 863,542 L 864,543 L 869,543 L 870,544 L 875,544 L 876,545 L 882,545 L 883,546 L 888,546 L 889,547 L 895,547 L 896,548 L 911,548 L 911,541 L 909,539 L 909,538 L 908,538 L 906,536 L 905,536 L 904,535 L 903,535 L 902,534 L 900,534 L 899,533 L 896,533 L 895,532 L 891,532 L 890,531 L 885,531 L 884,530 L 880,530 L 879,529 L 874,529 L 873,528 L 868,528 L 867,527 L 861,527 L 860,526 L 853,526 L 852,525 L 844,525 L 843,524 L 837,524 L 836,523 L 830,523 L 829,522 L 824,522 L 823,521 L 819,521 L 818,520 L 813,520 L 812,519 L 808,519 L 807,518 L 802,518 L 801,517 L 797,517 L 796,516 L 793,516 L 792,515 L 789,515 L 788,514 L 786,514 L 785,513 L 783,513 L 782,512 L 780,512 L 779,511 L 777,511 L 776,510 L 774,510 L 773,509 L 772,509 L 771,508 L 770,508 L 769,507 L 768,507 L 766,505 L 765,505 L 763,503 L 762,503 L 759,500 L 759,499 L 756,496 L 756,495 L 755,494 L 755,492 L 754,491 L 754,485 L 755,484 L 755,481 L 756,480 L 756,479 L 757,478 L 757,476 L 758,475 L 758,474 L 759,473 L 759,472 L 760,471 L 760,470 L 761,469 L 761,468 L 762,467 L 762,466 L 764,464 L 764,463 L 766,461 L 766,460 L 767,459 L 767,458 L 769,456 L 769,455 L 771,453 L 771,452 L 774,449 L 774,448 L 776,446 L 776,445 L 778,443 L 778,442 L 781,439 L 781,438 L 783,436 L 783,435 L 786,432 L 786,431 L 788,429 L 788,428 L 790,426 L 790,425 L 792,423 L 792,422 L 795,419 L 795,418 L 796,417 L 796,416 L 798,414 L 798,413 L 808,403 L 809,403 L 810,402 L 811,402 L 812,401 L 813,401 L 814,400 L 815,400 L 816,399 L 819,399 L 820,398 L 823,398 L 824,397 L 827,397 L 828,396 L 830,396 L 831,395 L 832,395 L 833,394 L 833,389 L 832,388 L 832,386 L 831,385 L 831,384 L 832,383 L 832,381 L 834,379 L 834,378 L 837,375 L 837,374 L 845,366 L 845,365 L 879,331 L 880,331 L 884,327 L 884,326 L 885,325 L 886,325 L 909,302 L 910,302 L 914,298 L 914,297 L 915,296 L 916,296 L 957,255 L 957,254 L 959,252 L 960,252 L 962,250 L 962,249 L 972,239 L 972,238 L 981,229 L 981,228 L 986,223 L 986,222 L 990,218 L 990,217 L 992,215 L 992,214 L 994,212 L 994,211 L 997,208 L 997,207 L 998,206 L 998,205 L 999,204 L 999,203 L 1000,202 L 1000,200 L 1001,199 L 1001,192 L 999,190 L 995,190 L 994,191 L 991,191 L 990,192 L 989,192 L 988,193 L 986,193 L 985,194 L 984,194 L 983,195 L 982,195 L 981,196 L 980,196 L 979,197 L 978,197 L 977,198 L 976,198 L 975,199 L 974,199 L 973,200 L 972,200 L 971,201 L 970,201 L 969,202 L 968,202 L 967,203 L 966,203 L 965,204 L 964,204 L 963,205 L 962,205 L 961,206 L 960,206 L 958,208 L 957,208 L 956,209 L 955,209 L 953,211 L 952,211 L 951,212 L 950,212 L 949,213 L 948,213 L 947,214 L 946,214 L 944,216 L 943,216 L 942,217 L 941,217 L 939,219 L 938,219 L 937,220 L 936,220 L 934,222 L 933,222 L 931,224 L 930,224 L 928,226 L 927,226 L 926,227 L 925,227 L 923,229 L 922,229 L 920,231 L 919,231 L 917,233 L 916,233 L 914,235 L 913,235 L 912,236 L 911,236 L 907,240 L 906,240 L 904,242 L 903,242 L 901,244 L 900,244 L 896,248 L 895,248 L 892,251 L 891,251 L 886,256 L 885,256 L 880,261 L 879,261 L 875,265 L 874,265 L 867,272 L 866,272 L 859,279 L 858,279 L 849,288 L 848,288 L 838,298 L 837,298 L 826,309 L 825,309 L 823,311 L 823,312 L 822,313 L 821,313 L 797,337 L 796,337 L 795,338 L 795,339 L 773,361 L 773,362 L 767,368 L 767,369 L 764,372 L 764,373 L 762,375 L 762,376 L 760,378 L 760,379 L 755,384 L 754,384 L 753,385 L 752,385 L 751,386 L 745,386 L 744,387 L 727,387 L 726,386 L 718,386 L 717,385 L 714,385 L 713,384 L 712,384 L 710,382 L 710,381 L 711,380 L 711,379 L 712,378 L 712,377 L 713,376 L 713,375 L 715,373 L 715,372 L 717,370 L 717,369 L 719,367 L 719,366 L 722,363 L 722,362 L 725,359 L 725,358 L 728,355 L 728,354 L 731,351 L 731,350 L 736,345 L 736,344 L 739,341 L 739,340 L 745,334 L 745,333 L 751,327 L 751,326 L 756,321 L 756,320 L 762,314 L 762,313 L 769,306 L 769,305 L 780,294 L 780,293 L 814,259 L 815,259 L 830,244 L 831,244 L 845,230 L 846,230 L 856,220 L 857,220 L 866,211 L 867,211 L 876,202 L 877,202 L 883,196 L 884,196 L 889,191 L 890,191 L 895,186 L 896,186 L 900,182 L 901,182 L 904,179 L 905,179 L 907,177 L 908,177 L 913,172 L 913,171 L 914,170 L 914,165 L 911,162 L 910,162 L 909,161 L 903,161 L 902,162 L 900,162 L 898,164 L 897,164 L 892,169 L 891,169 L 884,176 L 883,176 L 875,184 L 874,184 L 866,192 L 865,192 L 857,200 L 856,200 L 849,207 L 848,207 L 840,215 L 839,215 L 828,226 L 827,226 L 818,235 L 817,235 L 795,257 L 794,257 L 794,258 L 789,263 L 788,263 L 785,266 L 785,267 L 782,270 L 781,270 L 779,272 L 779,273 L 756,296 L 756,297 L 754,299 L 753,299 L 752,300 L 752,301 L 742,311 L 742,312 L 734,320 L 734,321 L 727,328 L 727,329 L 721,335 L 721,336 L 717,340 L 717,341 L 713,345 L 713,346 L 710,349 L 710,350 L 707,353 L 707,354 L 702,359 L 702,360 L 699,363 L 699,364 L 693,370 L 693,371 L 686,378 L 686,379 L 675,390 L 675,391 L 663,403 L 663,404 L 655,412 L 655,413 L 648,420 L 648,421 L 641,428 L 641,429 L 634,436 L 634,437 L 629,442 L 629,443 L 624,448 L 624,449 L 619,454 L 619,455 L 614,460 L 614,461 L 611,464 L 611,465 L 606,470 L 606,471 L 603,474 L 603,475 L 599,479 L 599,480 L 596,483 L 596,484 L 592,488 L 592,489 L 589,492 L 589,493 L 585,497 L 585,498 L 583,500 L 583,501 L 580,504 L 580,505 L 577,508 L 577,509 L 574,512 L 574,513 L 570,517 L 570,518 L 567,521 L 567,522 L 559,530 L 558,530 L 557,531 L 556,531 L 554,529 L 554,519 L 555,518 L 555,515 L 556,514 L 556,512 L 557,511 L 557,509 L 558,508 L 558,506 L 559,505 L 559,504 L 561,502 L 561,501 L 562,500 L 562,499 L 563,498 L 563,497 L 564,496 L 564,495 L 566,493 L 566,492 L 569,489 L 569,488 L 570,487 L 570,486 L 571,485 L 571,484 L 572,483 L 572,481 L 573,480 L 573,473 L 570,470 L 566,470 L 565,471 L 564,471 L 562,473 L 561,473 L 558,476 L 557,476 L 551,482 L 550,482 L 537,495 L 536,495 L 529,502 L 528,502 L 523,507 L 522,507 L 519,510 L 518,510 L 516,512 L 515,512 L 514,513 L 513,513 L 512,514 L 511,514 L 510,515 L 508,515 L 506,513 L 506,510 L 507,509 L 507,508 L 508,507 L 508,506 L 509,505 L 509,504 L 511,502 L 511,501 L 513,499 L 513,498 L 515,496 L 515,495 L 518,492 L 518,491 L 520,489 L 520,488 L 523,485 L 523,484 L 526,481 L 526,480 L 527,479 L 527,478 L 530,475 L 530,474 L 532,472 L 532,471 L 534,469 L 534,468 L 536,466 L 536,465 L 538,463 L 538,462 L 540,460 L 540,459 L 542,457 L 542,456 L 543,455 L 543,454 L 545,452 L 545,451 L 546,450 L 546,449 L 548,447 L 548,445 L 549,444 L 549,443 L 550,442 L 550,436 L 549,435 L 549,434 L 548,434 L 547,433 L 546,433 L 545,432 L 540,432 L 539,433 L 538,433 L 537,434 L 536,434 L 535,435 L 534,435 L 533,436 L 532,436 L 531,437 L 530,437 L 528,439 L 527,439 L 526,440 L 525,440 L 523,442 L 522,442 L 520,444 L 519,444 L 518,445 L 517,445 L 515,447 L 514,447 L 511,450 L 510,450 L 508,452 L 507,452 L 505,454 L 504,454 L 501,457 L 500,457 L 498,459 L 497,459 L 494,462 L 493,462 L 490,465 L 489,465 L 486,468 L 485,468 L 481,472 L 480,472 L 477,475 L 476,475 L 472,479 L 471,479 L 468,482 L 467,482 L 462,487 L 461,487 L 457,491 L 456,491 L 452,495 L 451,495 L 448,498 L 447,498 L 443,502 L 442,502 L 439,505 L 438,505 L 435,508 L 434,508 L 433,509 L 432,509 L 431,508 L 431,506 L 432,505 L 432,504 L 434,502 L 434,501 L 440,495 L 440,494 L 453,481 L 453,480 L 590,343 L 590,342 L 604,328 L 604,327 L 613,318 L 613,317 L 617,313 L 617,312 L 621,308 L 621,307 L 624,304 L 624,303 L 626,301 L 626,300 L 628,298 L 628,297 L 629,296 L 629,295 L 630,294 L 630,292 L 631,291 L 631,284 L 630,283 L 630,282 L 627,279 L 619,279 L 618,280 L 616,280 L 615,281 L 614,281 L 613,282 L 611,282 L 610,283 L 609,283 L 608,284 L 606,284 L 605,285 L 604,285 L 603,286 L 602,286 L 601,287 L 600,287 L 599,288 L 597,288 L 595,290 L 594,290 L 593,291 L 591,291 L 590,292 L 589,292 L 588,293 L 587,293 L 586,294 L 585,294 L 584,295 L 583,295 L 582,296 L 581,296 L 580,297 L 579,297 L 577,299 L 576,299 L 575,300 L 574,300 L 573,301 L 572,301 L 571,302 L 570,302 L 569,303 L 568,303 L 566,305 L 565,305 L 564,306 L 563,306 L 562,307 L 561,307 L 560,308 L 559,308 L 557,310 L 556,310 L 554,312 L 553,312 L 552,313 L 551,313 L 550,314 L 549,314 L 547,316 L 546,316 L 544,318 L 543,318 L 541,320 L 540,320 L 539,321 L 538,321 L 536,323 L 535,323 L 533,325 L 532,325 L 530,327 L 529,327 L 527,329 L 526,329 L 525,330 L 524,330 L 521,333 L 520,333 L 518,335 L 517,335 L 515,337 L 514,337 L 512,339 L 511,339 L 508,342 L 507,342 L 505,344 L 504,344 L 502,346 L 501,346 L 498,349 L 497,349 L 495,351 L 494,351 L 491,354 L 490,354 L 487,357 L 486,357 L 484,359 L 483,359 L 479,363 L 478,363 L 476,365 L 475,365 L 472,368 L 471,368 L 467,372 L 466,372 L 463,375 L 462,375 L 458,379 L 457,379 L 455,381 L 454,381 L 449,386 L 448,386 L 445,389 L 444,389 L 439,394 L 438,394 L 431,401 L 430,401 L 420,411 L 419,411 L 405,425 L 404,425 L 402,427 L 402,428 L 400,430 L 399,430 L 366,463 L 366,464 L 346,484 L 346,485 L 336,495 L 336,496 L 329,503 L 329,504 L 322,511 L 322,512 L 318,516 L 318,517 L 313,522 L 313,523 L 303,533 L 302,533 L 301,534 L 298,534 L 297,533 L 297,525 L 298,524 L 298,523 L 299,522 L 299,521 L 300,520 L 300,519 L 301,518 L 301,517 L 302,516 L 302,515 L 303,514 L 303,513 L 305,511 L 305,510 L 307,508 L 307,507 L 309,505 L 309,504 L 311,502 L 311,501 L 314,498 L 314,497 L 316,495 L 316,494 L 318,492 L 318,491 L 322,487 L 322,486 L 325,483 L 325,482 L 328,479 L 328,478 L 331,475 L 331,474 L 335,470 L 335,469 L 338,466 L 338,465 L 343,460 L 343,459 L 346,456 L 346,455 L 351,450 L 351,449 L 355,445 L 355,444 L 360,439 L 360,438 L 365,433 L 365,432 L 369,428 L 369,427 L 375,421 L 375,420 L 381,414 L 381,413 L 387,407 L 387,406 L 393,400 L 393,399 L 399,393 L 399,392 L 406,385 L 406,384 L 412,378 L 412,377 L 422,367 L 422,366 L 431,357 L 431,356 L 439,348 L 439,347 L 448,338 L 448,337 L 457,328 L 457,327 L 469,315 L 469,314 L 483,300 L 483,299 L 497,285 L 497,284 L 513,268 L 513,267 L 540,240 L 540,239 L 570,209 L 570,208 L 586,192 L 586,191 L 599,178 L 599,177 L 607,169 L 607,168 L 614,161 L 614,160 L 619,155 L 619,154 L 624,149 L 624,148 L 638,134 L 638,133 L 639,132 L 639,130 L 640,129 L 640,123 L 639,122 L 639,121 L 638,120" fill="none" stroke="black" stroke-width="2" /></svg>